<svg xmlns="http://www.w3.org/2000/svg" data-name="Layer 16" viewBox="0 0 100 125" x="0px" y="0px"><path d="M31,54H67.53a13.63,13.63,0,0,0,4.66-26.43A8.5,8.5,0,0,0,60.61,15.71a16.15,16.15,0,0,0-29.58,9c0,.11,0,.23,0,.34a5.72,5.72,0,0,0-5.1,5.69v.16A12.12,12.12,0,0,0,31,54Zm-2.9-20.77a1.5,1.5,0,0,0,1-1.84,2.32,2.32,0,0,1-.1-.7A2.7,2.7,0,0,1,32.29,28a1.5,1.5,0,0,0,1.36-.33,1.48,1.48,0,0,0,.49-1.31A14.92,14.92,0,0,1,34,24.66a13.15,13.15,0,0,1,24.82-6,1.5,1.5,0,0,0,1.1.79A1.45,1.45,0,0,0,61.23,19a5.49,5.49,0,1,1,7.26,8.23,1.5,1.5,0,0,0,.71,2.65A10.62,10.62,0,0,1,67.53,51H31a9.12,9.12,0,0,1-2.9-17.77Z"/><path d="M26.34,70.7l5-9.89a1.5,1.5,0,1,0-2.68-1.36l-5,9.9a1.51,1.51,0,0,0,.66,2,1.65,1.65,0,0,0,.68.16A1.5,1.5,0,0,0,26.34,70.7Z"/><path d="M41.34,70.7l5-9.89a1.5,1.5,0,1,0-2.68-1.36l-5,9.9a1.51,1.51,0,0,0,.66,2,1.65,1.65,0,0,0,.68.16A1.5,1.5,0,0,0,41.34,70.7Z"/><path d="M56.34,70.7l5-9.89a1.5,1.5,0,1,0-2.68-1.36l-5,9.9a1.51,1.51,0,0,0,.66,2,1.65,1.65,0,0,0,.68.16A1.49,1.49,0,0,0,56.34,70.7Z"/><path d="M73.66,59.45l-5,9.9a1.51,1.51,0,0,0,.66,2,1.65,1.65,0,0,0,.68.16,1.49,1.49,0,0,0,1.34-.83l5-9.89a1.5,1.5,0,1,0-2.68-1.36Z"/><path d="M25,91.31a1.44,1.44,0,0,0,.67.16A1.49,1.49,0,0,0,27,90.65l5-9.9a1.5,1.5,0,0,0-2.68-1.35l-5,9.9A1.5,1.5,0,0,0,25,91.31Z"/><path d="M40,91.31a1.44,1.44,0,0,0,.67.16A1.49,1.49,0,0,0,42,90.65l5-9.9a1.5,1.5,0,0,0-2.68-1.35l-5,9.9A1.5,1.5,0,0,0,40,91.31Z"/><path d="M55,91.31a1.51,1.51,0,0,0,2-.66l5-9.9a1.5,1.5,0,0,0-2.68-1.35l-5,9.9A1.5,1.5,0,0,0,55,91.31Z"/><text x="0" y="115" fill="#000000" font-size="5px" font-weight="bold" font-family="'Helvetica Neue', Helvetica, Arial-Unicode, Arial, Sans-serif">Created by Jan Niklas Prause</text><text x="0" y="120" fill="#000000" font-size="5px" font-weight="bold" font-family="'Helvetica Neue', Helvetica, Arial-Unicode, Arial, Sans-serif">from the Noun Project</text></svg>