<svg xmlns="http://www.w3.org/2000/svg" xmlns:xlink="http://www.w3.org/1999/xlink" version="1.1" x="0px" y="0px" viewBox="0 0 48 60" enable-background="new 0 0 48 48" xml:space="preserve"><g><path fill="#000000" d="M39.9,30.1v-2c3.4,0,6.1-2.7,6.1-6c0-2.9-2.2-5.5-5.1-5.9l-1-0.2l0.2-1c0.1-0.5,0.2-0.9,0.2-1.4   c0-3.6-3-6.5-6.7-6.5c-0.9,0-1.7,0.2-2.5,0.5l-1.1,0.5l-0.3-1.2C29,4,26.5,2,23.5,2c-3.4,0-6.2,2.7-6.2,6.1v1.4l-1.2-0.3   c-0.3-0.1-0.6-0.1-1-0.1c-3.1,0-5.7,2.5-5.7,5.6v1.5H8.1c-1.6,0-3.2,0.6-4.3,1.7C2.6,19,2,20.4,2,22c0,3.3,2.7,5.9,6.1,5.9v2   C3.6,29.9,0,26.4,0,22c0-2.1,0.8-4.1,2.4-5.5c1.4-1.3,3.2-2.1,5.1-2.2c0.3-4,3.6-7.1,7.7-7.1c0.1,0,0.2,0,0.3,0   c0.5-4,4-7.1,8.1-7.1c3.6,0,6.6,2.2,7.8,5.4c0.7-0.2,1.5-0.3,2.2-0.3c4.8,0,8.7,3.8,8.7,8.5c0,0.3,0,0.6-0.1,0.8   c3.4,1,5.9,4.1,5.9,7.7C48,26.5,44.4,30.1,39.9,30.1z"/><rect x="31.2" y="25.4" transform="matrix(0.9499 0.3124 -0.3124 0.9499 13.0175 -8.2485)" fill="#000000" width="2" height="22.1"/><rect x="26.3" y="22" transform="matrix(0.9499 0.3125 -0.3125 0.9499 11.7131 -6.8889)" fill="#000000" width="2" height="22.1"/><rect x="18.1" y="25.5" transform="matrix(0.9515 0.3077 -0.3077 0.9515 12.1584 -4.1064)" fill="#000000" width="2" height="22.1"/><rect x="13.1" y="22" transform="matrix(0.9499 0.3124 -0.3124 0.9499 11.0493 -2.7639)" fill="#000000" width="2" height="22.1"/></g><text x="0" y="63" fill="#000000" font-size="5px" font-weight="bold" font-family="'Helvetica Neue', Helvetica, Arial-Unicode, Arial, Sans-serif">Created by Creative Stall</text><text x="0" y="68" fill="#000000" font-size="5px" font-weight="bold" font-family="'Helvetica Neue', Helvetica, Arial-Unicode, Arial, Sans-serif">from the Noun Project</text></svg>